<svg version="1.1" xmlns="http://www.w3.org/2000/svg" viewBox="0 0 550.6199374416665 501.96789910932125" width="550.6199374416665" height="501.96789910932125">
  <!-- svg-source:excalidraw -->
  
  <defs>
    <style class="style-fonts">
      @font-face {
        font-family: "Virgil";
        src: url("https://excalidraw.com/Virgil.woff2");
      }
      @font-face {
        font-family: "Cascadia";
        src: url("https://excalidraw.com/Cascadia.woff2");
      }
      @font-face {
        font-family: "Assistant";
        src: url("https://excalidraw.com/Assistant-Regular.woff2");
      }
    </style>
    
  </defs>
  <g stroke-linecap="round" transform="translate(314.68396505725144 431.5037535100636) rotate(0 53.295798457999695 30.23207279962884)"><path d="M15.12 0 C39.43 -1.48, 73.31 -0.88, 91.48 0 C98.82 2.2, 109.28 4.99, 106.59 15.12 C108.19 27.6, 106.28 32.8, 106.59 45.35 C107.8 56.11, 103.7 60.46, 91.48 60.46 C77.53 60.69, 59 63.2, 15.12 60.46 C2.04 60.74, 0.1 58.92, 0 45.35 C0.83 39.89, 0.36 30.4, 0 15.12 C1.59 3.05, 1.78 0.99, 15.12 0" stroke="none" stroke-width="0" fill="#ffec99"></path><path d="M15.12 0 C43.6 1.04, 72.04 0.15, 91.48 0 M15.12 0 C36.72 0.25, 59.55 0.4, 91.48 0 M91.48 0 C99.65 0.48, 107.12 3.47, 106.59 15.12 M91.48 0 C102.38 0.2, 108.55 4, 106.59 15.12 M106.59 15.12 C107.41 21.59, 108.29 30.26, 106.59 45.35 M106.59 15.12 C106.31 21.77, 107.18 28.23, 106.59 45.35 M106.59 45.35 C107.81 54.46, 102.86 59.59, 91.48 60.46 M106.59 45.35 C105.31 56.81, 99.37 62.03, 91.48 60.46 M91.48 60.46 C67.55 60.97, 43.87 59.95, 15.12 60.46 M91.48 60.46 C75.59 59.43, 58.53 59.31, 15.12 60.46 M15.12 60.46 C3.23 58.72, -0.01 56.21, 0 45.35 M15.12 60.46 C5.74 61.04, 1.88 56.4, 0 45.35 M0 45.35 C-1.15 35.74, 1.13 24.52, 0 15.12 M0 45.35 C-0.37 35.51, 0.89 27.4, 0 15.12 M0 15.12 C1.87 5.91, 3.4 0.74, 15.12 0 M0 15.12 C-2.2 4.49, 3.12 -1.46, 15.12 0" stroke="#1e1e1e" stroke-width="4" fill="none"></path></g><g transform="translate(353.97977114464567 449.23582630969236) rotate(0 13.999992370605469 12.5)"><text x="13.999992370605469" y="0" font-family="Virgil, Segoe UI Emoji" font-size="20px" fill="#e03131" text-anchor="middle" style="white-space: pre;" direction="ltr" dominant-baseline="text-before-edge">20</text></g><g stroke-linecap="round" transform="translate(303.4819737449887 189.40390479747666) rotate(0 114.66343201238413 30.23207279962881)"><path d="M15.12 0 C79.55 -4.7, 141.53 -0.36, 214.21 0 C227.33 -2.01, 229.52 6.87, 229.33 15.12 C230.4 28.31, 226.48 38.21, 229.33 45.35 C231.39 55.27, 226.99 58.53, 214.21 60.46 C157.16 62.27, 102.26 60.08, 15.12 60.46 C6.61 57.77, 2.65 57.73, 0 45.35 C2.25 36.42, -1.34 29.35, 0 15.12 C-1.2 2.62, 3.74 2.21, 15.12 0" stroke="none" stroke-width="0" fill="#ffec99"></path><path d="M15.12 0 C70.36 -0.6, 123.4 1.91, 214.21 0 M15.12 0 C59.03 0.71, 102.56 1.12, 214.21 0 M214.21 0 C225.63 0.68, 228.87 4.54, 229.33 15.12 M214.21 0 C222.19 0.38, 228.14 3.55, 229.33 15.12 M229.33 15.12 C228.72 20.95, 229.46 30.13, 229.33 45.35 M229.33 15.12 C228.54 26.28, 228.61 39.34, 229.33 45.35 M229.33 45.35 C230.95 53.59, 226.21 59.15, 214.21 60.46 M229.33 45.35 C228.4 55.68, 222.64 60.08, 214.21 60.46 M214.21 60.46 C162.89 61.01, 114.16 60.45, 15.12 60.46 M214.21 60.46 C170.04 59.36, 125.57 60.26, 15.12 60.46 M15.12 60.46 C3.37 59.01, -1.22 55.03, 0 45.35 M15.12 60.46 C7.11 61.86, -2.03 55.81, 0 45.35 M0 45.35 C-1.32 31.66, 1.94 23.61, 0 15.12 M0 45.35 C-0.13 34.46, -0.29 24.27, 0 15.12 M0 15.12 C1.53 3.21, 6.01 -1.65, 15.12 0 M0 15.12 C1.21 3.58, 3.5 1.17, 15.12 0" stroke="#1e1e1e" stroke-width="4" fill="none"></path></g><g transform="translate(354.15360693218287 207.58667467654888) rotate(0 56.199974060058594 12.5)"><text x="0" y="0" font-family="Virgil, Segoe UI Emoji" font-size="20px" fill="#1e1e1e" text-anchor="start" style="white-space: pre;" direction="ltr" dominant-baseline="text-before-edge">1, 2, "Yo", 4</text></g><g transform="translate(60.15218310434847 200.2907491970372) rotate(0 25.069969177246094 12.500000000000014)"><text x="0" y="0" font-family="Virgil, Segoe UI Emoji" font-size="20px" fill="#1e1e1e" text-anchor="start" style="white-space: pre;" direction="ltr" dominant-baseline="text-before-edge">items</text></g><g stroke-linecap="round"><g transform="translate(117.49389300425486 215.0151144870131) rotate(0 97.02648802706176 -2.979694727039913)"><path d="M-1.16 -0.29 C31.28 -1.28, 162.66 -4.43, 195.2 -5.23 M0.43 -1.49 C32.76 -2.88, 162.7 -6.06, 194.85 -6.96" stroke="#1e1e1e" stroke-width="4" fill="none"></path></g><g transform="translate(117.49389300425486 215.0151144870131) rotate(0 97.02648802706176 -2.979694727039913)"><path d="M171.59 2.2 C179.16 1.14, 188.97 -3.93, 194.85 -6.96 M171.59 2.2 C179.4 -0.54, 189.35 -5.18, 194.85 -6.96" stroke="#1e1e1e" stroke-width="4" fill="none"></path></g><g transform="translate(117.49389300425486 215.0151144870131) rotate(0 97.02648802706176 -2.979694727039913)"><path d="M171.14 -14.89 C178.96 -9.99, 188.93 -9.1, 194.85 -6.96 M171.14 -14.89 C179.15 -11.22, 189.27 -9.45, 194.85 -6.96" stroke="#1e1e1e" stroke-width="4" fill="none"></path></g></g><mask></mask><g transform="translate(55.01502059172384 276.73776837039145) rotate(0 74.77992248535156 12.5)"><text x="0" y="0" font-family="Virgil, Segoe UI Emoji" font-size="20px" fill="#1e1e1e" text-anchor="start" style="white-space: pre;" direction="ltr" dominant-baseline="text-before-edge">to_show_items</text></g><g stroke-linecap="round"><g transform="translate(211.66246771231516 293.92493370083264) rotate(0 44.343717696950705 -36.27900186070764)"><path d="M-0.39 0.39 C14.15 -11.65, 72.67 -61.12, 87.69 -73.22 M1.61 -0.46 C16.47 -12.26, 75.22 -59.71, 89.88 -72.03" stroke="#1e1e1e" stroke-width="4" fill="none"></path></g><g transform="translate(211.66246771231516 293.92493370083264) rotate(0 44.343717696950705 -36.27900186070764)"><path d="M77.16 -50.51 C82.3 -59.43, 84.88 -63.26, 89.88 -72.03 M77.16 -50.51 C81.14 -58.06, 85.38 -63.76, 89.88 -72.03" stroke="#1e1e1e" stroke-width="4" fill="none"></path></g><g transform="translate(211.66246771231516 293.92493370083264) rotate(0 44.343717696950705 -36.27900186070764)"><path d="M66.3 -63.73 C75.03 -68.12, 81.29 -67.47, 89.88 -72.03 M66.3 -63.73 C73.87 -66.88, 81.69 -68.21, 89.88 -72.03" stroke="#1e1e1e" stroke-width="4" fill="none"></path></g></g><mask></mask><g stroke-linecap="round" transform="translate(311.29307341689827 10) rotate(0 114.66343201238413 56.99474766377041)"><path d="M28.5 0 C87.3 4.28, 145.24 -0.2, 200.83 0 C222.93 3.01, 231.53 8.33, 229.33 28.5 C232.09 50.73, 229.39 66.79, 229.33 85.49 C231.27 101.28, 221.37 113.26, 200.83 113.99 C142.64 117.52, 90.01 114.07, 28.5 113.99 C6.09 112.49, -0.09 101.53, 0 85.49 C1.39 63.33, 1.55 45.51, 0 28.5 C3.55 11.3, 12.09 -1.72, 28.5 0" stroke="none" stroke-width="0" fill="#ffec99"></path><path d="M28.5 0 C91.1 -1.91, 152.66 -0.25, 200.83 0 M28.5 0 C96.1 -0.78, 163.24 -2.07, 200.83 0 M200.83 0 C217.92 -0.6, 227.46 10.14, 229.33 28.5 M200.83 0 C219.07 2.04, 231.59 9.83, 229.33 28.5 M229.33 28.5 C230.21 47.59, 228.44 63.81, 229.33 85.49 M229.33 28.5 C229.78 46.92, 229.64 66.64, 229.33 85.49 M229.33 85.49 C227.96 106.02, 218.89 112.38, 200.83 113.99 M229.33 85.49 C227.07 103.11, 220.08 114.69, 200.83 113.99 M200.83 113.99 C156.43 115.3, 110.26 113.3, 28.5 113.99 M200.83 113.99 C163.1 114.46, 127.03 114.35, 28.5 113.99 M28.5 113.99 C9.64 112.73, -0.7 102.76, 0 85.49 M28.5 113.99 C7.7 112.31, 1.07 105.04, 0 85.49 M0 85.49 C1.85 69.32, -1.78 51.05, 0 28.5 M0 85.49 C-0.78 66.99, 0.37 48.4, 0 28.5 M0 28.5 C0.81 10.27, 8.29 0.78, 28.5 0 M0 28.5 C1.94 9.31, 9.38 -1.61, 28.5 0" stroke="#1e1e1e" stroke-width="4" fill="none"></path></g><g transform="translate(384.856545102134 41.99474766377041) rotate(0 41.09996032714844 25.000000000000007)"><text x="41.09996032714844" y="0" font-family="Virgil, Segoe UI Emoji" font-size="20px" fill="#1e1e1e" text-anchor="middle" style="white-space: pre;" direction="ltr" dominant-baseline="text-before-edge">"Climbing"</text><text x="41.09996032714844" y="25" font-family="Virgil, Segoe UI Emoji" font-size="20px" fill="#1e1e1e" text-anchor="middle" style="white-space: pre;" direction="ltr" dominant-baseline="text-before-edge">3</text></g><g transform="translate(55.33279595221228 33.24274660776962) rotate(0 10.3599853515625 12.5)"><text x="0" y="0" font-family="Virgil, Segoe UI Emoji" font-size="20px" fill="#1e1e1e" text-anchor="start" style="white-space: pre;" direction="ltr" dominant-baseline="text-before-edge">sp</text></g><g stroke-linecap="round"><g transform="translate(83.25453820075148 48.334989201329904) rotate(0 111.73647185274535 -3.2239385483663625)"><path d="M-0.42 -0.63 C36.91 -1.91, 187.16 -6.26, 224.43 -7.18 M1.56 1.65 C38.78 0.47, 187.2 -4.97, 223.99 -6.03" stroke="#1e1e1e" stroke-width="4" fill="none"></path></g><g transform="translate(83.25453820075148 48.334989201329904) rotate(0 111.73647185274535 -3.2239385483663625)"><path d="M200.79 3.29 C207.56 1.82, 215.24 -3.41, 223.99 -6.03 M200.79 3.29 C208.96 -0.01, 216.46 -2.76, 223.99 -6.03" stroke="#1e1e1e" stroke-width="4" fill="none"></path></g><g transform="translate(83.25453820075148 48.334989201329904) rotate(0 111.73647185274535 -3.2239385483663625)"><path d="M200.23 -13.8 C207.25 -9.49, 215.13 -8.92, 223.99 -6.03 M200.23 -13.8 C208.69 -11.6, 216.37 -8.86, 223.99 -6.03" stroke="#1e1e1e" stroke-width="4" fill="none"></path></g></g><mask></mask><g transform="translate(50.19563343958765 109.68976578112381) rotate(0 55.81993865966797 12.5)"><text x="0" y="0" font-family="Virgil, Segoe UI Emoji" font-size="20px" fill="#1e1e1e" text-anchor="start" style="white-space: pre;" direction="ltr" dominant-baseline="text-before-edge">sport_room</text></g><g stroke-linecap="round"><g transform="translate(168.9231129088118 128.69885999880634) rotate(0 63.3037015226343 -40.67237672581062)"><path d="M-0.28 0.26 C20.79 -12.98, 106.08 -66.58, 127.38 -80.2 M1.78 -0.65 C22.67 -14.13, 105.93 -68.46, 126.84 -81.71" stroke="#1e1e1e" stroke-width="4" fill="none"></path></g><g transform="translate(168.9231129088118 128.69885999880634) rotate(0 63.3037015226343 -40.67237672581062)"><path d="M111.73 -61.8 C118.03 -68.04, 125.25 -75.37, 126.84 -81.71 M111.73 -61.8 C115.85 -67.75, 120 -73.61, 126.84 -81.71" stroke="#1e1e1e" stroke-width="4" fill="none"></path></g><g transform="translate(168.9231129088118 128.69885999880634) rotate(0 63.3037015226343 -40.67237672581062)"><path d="M102.46 -76.18 C112.2 -76.93, 122.94 -78.8, 126.84 -81.71 M102.46 -76.18 C109.41 -77.94, 116.27 -79.6, 126.84 -81.71" stroke="#1e1e1e" stroke-width="4" fill="none"></path></g></g><mask></mask><g stroke-linecap="round"><g transform="translate(272.37940687231895 289.4137756253234) rotate(0 -131.07452315333387 0.16386263469030382)"><path d="M0.36 -0.77 C-43.32 -0.56, -218.06 1.29, -261.68 1.29 M-0.91 1.44 C-44.75 1.33, -218.92 -0.09, -262.38 -0.33" stroke="#e03131" stroke-width="4" fill="none"></path></g></g><mask></mask><g stroke-linecap="round"><g transform="translate(31.55266434150184 113.87836611127804) rotate(0 88.96876582092989 8.100835611962026)"><path d="M0.89 0 C30.44 2.62, 147.5 13.29, 176.89 15.88 M-0.1 -1.05 C29.84 1.74, 149.08 14.32, 179.04 17.25" stroke="#e03131" stroke-width="4" fill="none"></path></g></g><mask></mask><g stroke-linecap="round" transform="translate(305.45416667084993 355.44373933406155) rotate(0 53.295798457999695 30.23207279962881)"><path d="M15.12 0 C43.28 -1.51, 71.95 -1.7, 91.48 0 C104.03 1.78, 107.2 4.65, 106.59 15.12 C107.19 24.38, 107.91 41.21, 106.59 45.35 C103.06 54.96, 101.46 59.45, 91.48 60.46 C68.62 60.49, 50.96 62.19, 15.12 60.46 C4.01 59.97, 0.6 52.34, 0 45.35 C-0.98 32.89, -2.74 22.87, 0 15.12 C-3.6 1.97, 4.84 0.37, 15.12 0" stroke="none" stroke-width="0" fill="#ffec99"></path><path d="M15.12 0 C43.21 -2.08, 70.18 -1.62, 91.48 0 M15.12 0 C39.99 0.84, 66.24 0.49, 91.48 0 M91.48 0 C102.42 1.77, 106.17 5.3, 106.59 15.12 M91.48 0 C100.3 -0.05, 107.02 5.58, 106.59 15.12 M106.59 15.12 C106.42 20.28, 105.04 29.3, 106.59 45.35 M106.59 15.12 C106.52 22.65, 106.63 31.23, 106.59 45.35 M106.59 45.35 C105.48 56.17, 99.72 61.23, 91.48 60.46 M106.59 45.35 C106.83 53.15, 100.03 61.3, 91.48 60.46 M91.48 60.46 C70.26 58.94, 50.7 61.36, 15.12 60.46 M91.48 60.46 C69.37 60.85, 47.82 61.77, 15.12 60.46 M15.12 60.46 C5.33 61.73, 1.06 55.07, 0 45.35 M15.12 60.46 C5.07 59.99, 1.54 56.12, 0 45.35 M0 45.35 C0.16 39.14, 0.95 31.09, 0 15.12 M0 45.35 C0.06 33.69, 0.39 22.14, 0 15.12 M0 15.12 C0.45 5.03, 4.19 -1.4, 15.12 0 M0 15.12 C0.26 3.8, 3.45 0.56, 15.12 0" stroke="#1e1e1e" stroke-width="4" fill="none"></path></g><g transform="translate(356.1257998580441 373.6265092131338) rotate(0 9.589996337890625 12.5)"><text x="0" y="0" font-family="Virgil, Segoe UI Emoji" font-size="20px" fill="#1e1e1e" text-anchor="start" style="white-space: pre;" direction="ltr" dominant-baseline="text-before-edge">10</text></g><g transform="translate(62.124376030209646 366.330583733622) rotate(0 5.6199951171875 12.5)"><text x="0" y="0" font-family="Virgil, Segoe UI Emoji" font-size="20px" fill="#1e1e1e" text-anchor="start" style="white-space: pre;" direction="ltr" dominant-baseline="text-before-edge">x</text></g><g stroke-linecap="round"><g transform="translate(80.56613780999885 381.54231825908914) rotate(0 116.47646208712032 -3.223379344785485)"><path d="M-0.89 -0.91 C37.87 -2.01, 193.08 -5.2, 232.02 -6.14 M0.84 1.22 C40.01 -0.29, 195.74 -7.01, 234.24 -8.1" stroke="#1e1e1e" stroke-width="4" fill="none"></path></g><g transform="translate(80.56613780999885 381.54231825908914) rotate(0 116.47646208712032 -3.223379344785485)"><path d="M211.08 1.31 C215.44 -2.47, 223.39 -3.66, 234.24 -8.1 M211.08 1.31 C217.58 -1.5, 223.99 -4.39, 234.24 -8.1" stroke="#1e1e1e" stroke-width="4" fill="none"></path></g><g transform="translate(80.56613780999885 381.54231825908914) rotate(0 116.47646208712032 -3.223379344785485)"><path d="M210.45 -15.78 C215.03 -15.19, 223.14 -12.02, 234.24 -8.1 M210.45 -15.78 C217.21 -13.62, 223.8 -11.53, 234.24 -8.1" stroke="#1e1e1e" stroke-width="4" fill="none"></path></g></g><mask></mask><g transform="translate(56.98721351758502 442.7776029069763) rotate(0 4.689994812011719 12.5)"><text x="0" y="0" font-family="Virgil, Segoe UI Emoji" font-size="20px" fill="#1e1e1e" text-anchor="start" style="white-space: pre;" direction="ltr" dominant-baseline="text-before-edge">y</text></g><g stroke-linecap="round"><g transform="translate(73.45480529149671 455.60543338533364) rotate(0 114.37372991624068 4.055270675793423)"><path d="M-0.21 -0.1 C38.16 1.37, 191.15 7.78, 229.27 9.17 M-1.77 -1.2 C36.56 -0.07, 190.36 5.79, 228.59 7.61" stroke="#1e1e1e" stroke-width="4" fill="none"></path></g><g transform="translate(73.45480529149671 455.60543338533364) rotate(0 114.37372991624068 4.055270675793423)"><path d="M204.76 15.17 C209.86 14.39, 217.1 11.43, 228.59 7.61 M204.76 15.17 C212.45 13.04, 219.07 9.69, 228.59 7.61" stroke="#1e1e1e" stroke-width="4" fill="none"></path></g><g transform="translate(73.45480529149671 455.60543338533364) rotate(0 114.37372991624068 4.055270675793423)"><path d="M205.48 -1.92 C210.47 1.1, 217.54 1.93, 228.59 7.61 M205.48 -1.92 C212.84 1.3, 219.25 3.29, 228.59 7.61" stroke="#1e1e1e" stroke-width="4" fill="none"></path></g></g><mask></mask><g stroke-linecap="round"><g transform="translate(459.8602552107438 458.12291393504097) rotate(0 -223.82885085961567 -1.1707892518760445)"><path d="M0.52 1.06 C-74.1 0.71, -373.1 -1.62, -447.91 -2.19 M-0.67 0.57 C-75.45 0.45, -374.2 -0.3, -448.99 -0.57" stroke="#e03131" stroke-width="4" fill="none"></path></g></g><mask></mask></svg>