<svg version="1.1" xmlns="http://www.w3.org/2000/svg" viewBox="0 0 620.156908510823 524.377595115624" width="620.156908510823" height="524.377595115624">
  <!-- svg-source:excalidraw -->
  
  <defs>
    <style class="style-fonts">
      @font-face {
        font-family: "Virgil";
        src: url("https://excalidraw.com/Virgil.woff2");
      }
      @font-face {
        font-family: "Cascadia";
        src: url("https://excalidraw.com/Cascadia.woff2");
      }
      @font-face {
        font-family: "Assistant";
        src: url("https://excalidraw.com/Assistant-Regular.woff2");
      }
    </style>
    
  </defs>
  <g stroke-linecap="round" transform="translate(267.8071681998972 349.94052886177775) rotate(0 114.66343201238413 30.23207279962881)"><path d="M15.12 0 C79.55 -4.7, 141.53 -0.36, 214.21 0 C227.33 -2.01, 229.52 6.87, 229.33 15.12 C230.4 28.31, 226.48 38.21, 229.33 45.35 C231.39 55.27, 226.99 58.53, 214.21 60.46 C157.16 62.27, 102.26 60.08, 15.12 60.46 C6.61 57.77, 2.65 57.73, 0 45.35 C2.25 36.42, -1.34 29.35, 0 15.12 C-1.2 2.62, 3.74 2.21, 15.12 0" stroke="none" stroke-width="0" fill="#ffec99"></path><path d="M15.12 0 C70.36 -0.6, 123.4 1.91, 214.21 0 M15.12 0 C59.03 0.71, 102.56 1.12, 214.21 0 M214.21 0 C225.63 0.68, 228.87 4.54, 229.33 15.12 M214.21 0 C222.19 0.38, 228.14 3.55, 229.33 15.12 M229.33 15.12 C228.72 20.95, 229.46 30.13, 229.33 45.35 M229.33 15.12 C228.54 26.28, 228.61 39.34, 229.33 45.35 M229.33 45.35 C230.95 53.59, 226.21 59.15, 214.21 60.46 M229.33 45.35 C228.4 55.68, 222.64 60.08, 214.21 60.46 M214.21 60.46 C162.89 61.01, 114.16 60.45, 15.12 60.46 M214.21 60.46 C170.04 59.36, 125.57 60.26, 15.12 60.46 M15.12 60.46 C3.37 59.01, -1.22 55.03, 0 45.35 M15.12 60.46 C7.11 61.86, -2.03 55.81, 0 45.35 M0 45.35 C-1.32 31.66, 1.94 23.61, 0 15.12 M0 45.35 C-0.13 34.46, -0.29 24.27, 0 15.12 M0 15.12 C1.53 3.21, 6.01 -1.65, 15.12 0 M0 15.12 C1.21 3.58, 3.5 1.17, 15.12 0" stroke="#1e1e1e" stroke-width="4" fill="none"></path></g><g transform="translate(318.4788013870914 368.12329874085) rotate(0 55.819984436035156 12.5)"><text x="0" y="0" font-family="Virgil, Segoe UI Emoji" font-size="20px" fill="#1e1e1e" text-anchor="start" style="white-space: pre;" direction="ltr" dominant-baseline="text-before-edge">1, 2, 3, 100</text></g><g transform="translate(24.47737755925698 360.82737326133827) rotate(0 62.649932861328125 12.500000000000014)"><text x="0" y="0" font-family="Virgil, Segoe UI Emoji" font-size="20px" fill="#1e1e1e" text-anchor="start" style="white-space: pre;" direction="ltr" dominant-baseline="text-before-edge">test2_items</text></g><g stroke-linecap="round"><g transform="translate(156.97901482732743 374.273264475147) rotate(0 59.44652434297973 -2.3185614770918903)"><path d="M-1.16 -0.29 C18.75 -1.06, 100.02 -3.33, 120.04 -3.9 M0.43 -1.49 C20.23 -2.66, 100.07 -4.95, 119.69 -5.64" stroke="#1e1e1e" stroke-width="4" fill="none"></path></g><g transform="translate(156.97901482732743 374.273264475147) rotate(0 59.44652434297973 -2.3185614770918903)"><path d="M96.48 3.65 C104.03 2.54, 113.83 -2.57, 119.69 -5.64 M96.48 3.65 C104.27 0.87, 114.2 -3.83, 119.69 -5.64" stroke="#1e1e1e" stroke-width="4" fill="none"></path></g><g transform="translate(156.97901482732743 374.273264475147) rotate(0 59.44652434297973 -2.3185614770918903)"><path d="M95.93 -13.44 C103.77 -8.59, 113.76 -7.74, 119.69 -5.64 M95.93 -13.44 C103.96 -9.82, 114.1 -8.1, 119.69 -5.64" stroke="#1e1e1e" stroke-width="4" fill="none"></path></g></g><mask></mask><g stroke-linecap="round" transform="translate(380.8300444860547 453.9134495163664) rotate(0 114.66343201238413 30.23207279962881)"><path d="M15.12 0 C64.71 2.25, 118.21 -0.52, 214.21 0 C223 0.11, 230.79 7.55, 229.33 15.12 C226.09 20.52, 232.89 30.36, 229.33 45.35 C230.19 54.34, 225.18 61.51, 214.21 60.46 C167.52 60.16, 124.57 58.93, 15.12 60.46 C1.71 59.22, 1.6 51.98, 0 45.35 C2.51 38.39, -3.29 27.79, 0 15.12 C1.61 6.84, 2.88 1.78, 15.12 0" stroke="none" stroke-width="0" fill="#ffec99"></path><path d="M15.12 0 C79.94 -1.1, 145.12 1.11, 214.21 0 M15.12 0 C71.28 1.33, 128.37 1.73, 214.21 0 M214.21 0 C225.33 -0.48, 229.83 5.95, 229.33 15.12 M214.21 0 C222.92 -1.67, 230.38 4.87, 229.33 15.12 M229.33 15.12 C228.39 24.27, 229.24 38.16, 229.33 45.35 M229.33 15.12 C228.84 22.19, 229.76 28.02, 229.33 45.35 M229.33 45.35 C230.85 56.72, 223.83 60.78, 214.21 60.46 M229.33 45.35 C231.01 55.65, 223.92 62.34, 214.21 60.46 M214.21 60.46 C172.81 62.74, 128.69 61.25, 15.12 60.46 M214.21 60.46 C137.73 63.08, 60.31 62.75, 15.12 60.46 M15.12 60.46 C4.97 59.87, 1.44 57.41, 0 45.35 M15.12 60.46 C6.35 60.11, -0.52 56.39, 0 45.35 M0 45.35 C2.05 33.49, 2.06 23.95, 0 15.12 M0 45.35 C-0.18 33.55, 0.14 22.37, 0 15.12 M0 15.12 C-0.44 5.79, 3.85 0.43, 15.12 0 M0 15.12 C1.55 3.48, 3.29 -0.47, 15.12 0" stroke="#1e1e1e" stroke-width="4" fill="none"></path></g><g transform="translate(428.6120657028737 483.4120141749661) rotate(0 45.74998474121094 12.5)"><text x="0" y="0" font-family="Virgil, Segoe UI Emoji" font-size="20px" fill="#1e1e1e" text-anchor="start" style="white-space: pre;" direction="ltr" dominant-baseline="text-before-edge">1, 2, 3, 4</text></g><g transform="translate(17.03438551467508 480.48234888807946) rotate(0 96.80989837646482 12.5)"><text x="0" y="0" font-family="Virgil, Segoe UI Emoji" font-size="20px" fill="#1e1e1e" text-anchor="start" style="white-space: pre;" direction="ltr" dominant-baseline="text-before-edge">other_test2_items</text></g><g stroke-linecap="round"><g transform="translate(217.85595381301903 492.45797662453174) rotate(0 84.07468700802502 -3.7665598347261664)"><path d="M-0.24 -0.81 C27.68 -2.04, 139.7 -6.51, 167.85 -7.56 M1.83 1.38 C29.54 0.37, 139.02 -4.27, 166.74 -6.03" stroke="#1e1e1e" stroke-width="4" fill="none"></path></g><g transform="translate(217.85595381301903 492.45797662453174) rotate(0 84.07468700802502 -3.7665598347261664)"><path d="M143.72 3.71 C149.9 0.07, 158.73 -1.76, 166.74 -6.03 M143.72 3.71 C151.7 0.93, 158.63 -3.54, 166.74 -6.03" stroke="#1e1e1e" stroke-width="4" fill="none"></path></g><g transform="translate(217.85595381301903 492.45797662453174) rotate(0 84.07468700802502 -3.7665598347261664)"><path d="M142.84 -13.37 C149.28 -11.43, 158.4 -7.68, 166.74 -6.03 M142.84 -13.37 C151.21 -10.37, 158.44 -9.08, 166.74 -6.03" stroke="#1e1e1e" stroke-width="4" fill="none"></path></g></g><mask></mask><g stroke-linecap="round" transform="translate(297.30411756417914 206.56069359493432) rotate(0 114.66343201238413 30.23207279962881)"><path d="M15.12 0 C58.3 0.02, 104.01 -6.42, 214.21 0 C223.44 2.54, 226.96 1.64, 229.33 15.12 C231.32 29.1, 228.65 38.14, 229.33 45.35 C229.56 55.33, 222.95 63.27, 214.21 60.46 C149.59 65.94, 78.27 65.56, 15.12 60.46 C7.27 61.25, -1.3 52.48, 0 45.35 C-2.19 36.34, -1.29 27.49, 0 15.12 C-3.5 8.26, 4.91 -0.04, 15.12 0" stroke="none" stroke-width="0" fill="#ffec99"></path><path d="M15.12 0 C63.83 -0.01, 113.12 -1.23, 214.21 0 M15.12 0 C74.17 -1.15, 131.65 -1.65, 214.21 0 M214.21 0 C225.72 0.23, 230.89 6.94, 229.33 15.12 M214.21 0 C223.12 0.44, 230.33 5.83, 229.33 15.12 M229.33 15.12 C229.44 23.48, 230.54 28.06, 229.33 45.35 M229.33 15.12 C229.07 21.15, 229.55 28.32, 229.33 45.35 M229.33 45.35 C228.15 54.5, 224.92 59.14, 214.21 60.46 M229.33 45.35 C227.31 53.61, 222.73 58.51, 214.21 60.46 M214.21 60.46 C154.4 60.67, 96.69 60.75, 15.12 60.46 M214.21 60.46 C136.56 59.13, 59.86 60.15, 15.12 60.46 M15.12 60.46 C4.19 61.79, -0.82 54.06, 0 45.35 M15.12 60.46 C3.57 62.56, -1.33 56.09, 0 45.35 M0 45.35 C-0.33 35.18, 1.82 25.94, 0 15.12 M0 45.35 C-1.01 33.83, 0.03 22.95, 0 15.12 M0 15.12 C-1.18 5.84, 4.8 -0.02, 15.12 0 M0 15.12 C0.63 5.91, 5.78 -0.94, 15.12 0" stroke="#1e1e1e" stroke-width="4" fill="none"></path></g><g transform="translate(345.08616869385594 236.02306369567071) rotate(0 55.819984436035156 12.5)"><text x="0" y="0" font-family="Virgil, Segoe UI Emoji" font-size="20px" fill="#1e1e1e" text-anchor="start" style="white-space: pre;" direction="ltr" dominant-baseline="text-before-edge">1, 2, 3, 100</text></g><g transform="translate(38.03197026334783 229.8832701677432) rotate(0 25.069969177246094 12.5)"><text x="0" y="0" font-family="Virgil, Segoe UI Emoji" font-size="20px" fill="#1e1e1e" text-anchor="start" style="white-space: pre;" direction="ltr" dominant-baseline="text-before-edge">items</text></g><g stroke-linecap="round"><g transform="translate(95.37368016325433 244.56685711941458) rotate(0 95.86501663037109 -4.782150239171514)"><path d="M0.84 1.13 C32.97 -0.3, 161 -6.96, 192.89 -8.69 M-0.18 0.68 C31.88 -1.08, 160.59 -8.94, 192.55 -10.36" stroke="#1e1e1e" stroke-width="4" fill="none"></path></g><g transform="translate(95.37368016325433 244.56685711941458) rotate(0 95.86501663037109 -4.782150239171514)"><path d="M169.55 -0.56 C178.53 -1.81, 185.2 -6.07, 192.55 -10.36 M169.55 -0.56 C177.66 -2.79, 183.78 -6.7, 192.55 -10.36" stroke="#1e1e1e" stroke-width="4" fill="none"></path></g><g transform="translate(95.37368016325433 244.56685711941458) rotate(0 95.86501663037109 -4.782150239171514)"><path d="M168.63 -17.63 C177.88 -13.62, 184.83 -12.62, 192.55 -10.36 M168.63 -17.63 C177.16 -14.37, 183.57 -12.79, 192.55 -10.36" stroke="#1e1e1e" stroke-width="4" fill="none"></path></g></g><mask></mask><g transform="translate(10 296.3980689269676) rotate(0 59.22993469238281 12.5)"><text x="0" y="0" font-family="Virgil, Segoe UI Emoji" font-size="20px" fill="#1e1e1e" text-anchor="start" style="white-space: pre;" direction="ltr" dominant-baseline="text-before-edge">other_items</text></g><g stroke-linecap="round"><g transform="translate(137.03656325069915 313.8308700369017) rotate(0 79.11018936293641 -30.87647742818399)"><path d="M-0.83 -0.42 C25.43 -10.67, 131.11 -51.89, 157.62 -62.06 M0.94 -1.69 C27.59 -11.71, 133.93 -50.97, 160.02 -60.69" stroke="#1e1e1e" stroke-width="4" fill="none"></path></g><g transform="translate(137.03656325069915 313.8308700369017) rotate(0 79.11018936293641 -30.87647742818399)"><path d="M140.96 -44.5 C146.15 -50.31, 152.16 -54.23, 160.02 -60.69 M140.96 -44.5 C147.52 -50.03, 152.43 -54.57, 160.02 -60.69" stroke="#1e1e1e" stroke-width="4" fill="none"></path></g><g transform="translate(137.03656325069915 313.8308700369017) rotate(0 79.11018936293641 -30.87647742818399)"><path d="M135.02 -60.54 C141.95 -61.41, 149.77 -60.43, 160.02 -60.69 M135.02 -60.54 C143.5 -60.89, 150.34 -60.21, 160.02 -60.69" stroke="#1e1e1e" stroke-width="4" fill="none"></path></g></g><mask></mask><g stroke-linecap="round" transform="translate(325.1726723323037 10) rotate(0 42.77837785150683 30.23207279962881)"><path d="M15.12 0 C34.3 0.56, 60.28 -2.59, 70.44 0 C82.52 -3.28, 84.46 3.75, 85.56 15.12 C82.53 26.02, 87.77 40.08, 85.56 45.35 C88.24 57.35, 78.66 56.86, 70.44 60.46 C55.86 62.55, 32.18 57.59, 15.12 60.46 C5.05 58.02, -0.37 58.11, 0 45.35 C-1.15 36.84, 3.7 25.62, 0 15.12 C1.65 4.73, 5.44 3.41, 15.12 0" stroke="none" stroke-width="0" fill="#ffec99"></path><path d="M15.12 0 C37.55 -0.9, 56.61 -0.4, 70.44 0 M15.12 0 C27.92 -0.55, 42.28 -0.39, 70.44 0 M70.44 0 C79.89 -1.97, 84.47 5.6, 85.56 15.12 M70.44 0 C82.14 -1.66, 84.75 6.99, 85.56 15.12 M85.56 15.12 C84.95 22.5, 84.65 31.99, 85.56 45.35 M85.56 15.12 C86.44 27.7, 85.61 37.98, 85.56 45.35 M85.56 45.35 C84.25 57.22, 80.65 59.85, 70.44 60.46 M85.56 45.35 C84.9 53.67, 82.74 61.04, 70.44 60.46 M70.44 60.46 C51.93 59.59, 30.25 61.92, 15.12 60.46 M70.44 60.46 C57.31 61.39, 44.67 59.97, 15.12 60.46 M15.12 60.46 C5.87 60.74, -0.28 55.41, 0 45.35 M15.12 60.46 C6.28 60.91, -0.13 56.62, 0 45.35 M0 45.35 C-2.21 38.19, -1.64 29.19, 0 15.12 M0 45.35 C0.91 37.37, 0.84 28.19, 0 15.12 M0 15.12 C1.27 6.44, 5.02 0.42, 15.12 0 M0 15.12 C1.22 4.98, 4.83 2.25, 15.12 0" stroke="#1e1e1e" stroke-width="4" fill="none"></path></g><g transform="translate(358.45449558620953 34.20346536391466) rotate(0 9.589996337890625 12.5)"><text x="0" y="0" font-family="Virgil, Segoe UI Emoji" font-size="20px" fill="#1e1e1e" text-anchor="start" style="white-space: pre;" direction="ltr" dominant-baseline="text-before-edge">10</text></g><g transform="translate(237.3402361511355 23.332669212530476) rotate(0 5.6199951171875 12.5)"><text x="0" y="0" font-family="Virgil, Segoe UI Emoji" font-size="20px" fill="#1e1e1e" text-anchor="start" style="white-space: pre;" direction="ltr" dominant-baseline="text-before-edge">x</text></g><g stroke-linecap="round"><g transform="translate(255.52624299726244 39.33575480588064) rotate(0 30.971739800142473 0.011326398500038692)"><path d="M-0.6 -0.7 C9.63 -0.76, 50.63 -1, 61.08 -1.03 M1.28 1.54 C11.92 1.65, 53.32 0.21, 63.34 -0.04" stroke="#1e1e1e" stroke-width="4" fill="none"></path></g><g transform="translate(255.52624299726244 39.33575480588064) rotate(0 30.971739800142473 0.011326398500038692)"><path d="M40.11 9.21 C45.32 5.36, 51.07 4.5, 63.34 -0.04 M40.11 9.21 C44.9 7.61, 51.45 4.49, 63.34 -0.04" stroke="#1e1e1e" stroke-width="4" fill="none"></path></g><g transform="translate(255.52624299726244 39.33575480588064) rotate(0 30.971739800142473 0.011326398500038692)"><path d="M39.6 -7.88 C44.85 -7.07, 50.75 -3.27, 63.34 -0.04 M39.6 -7.88 C44.45 -5.58, 51.12 -4.79, 63.34 -0.04" stroke="#1e1e1e" stroke-width="4" fill="none"></path></g></g><mask></mask><g transform="translate(200.1996960114809 117.42480455996952) rotate(0 4.689994812011719 12.5)"><text x="0" y="0" font-family="Virgil, Segoe UI Emoji" font-size="20px" fill="#1e1e1e" text-anchor="start" style="white-space: pre;" direction="ltr" dominant-baseline="text-before-edge">y</text></g><g stroke-linecap="round"><g transform="translate(218.15639445786678 135.0302601390765) rotate(0 44.27361378033277 -1.781919130919297)"><path d="M0.13 -0.86 C14.97 -1.48, 73.54 -4.35, 88.17 -4.74 M-1.26 1.3 C13.46 0.88, 72.35 -2.71, 87.03 -3.83" stroke="#1e1e1e" stroke-width="4" fill="none"></path></g><g transform="translate(218.15639445786678 135.0302601390765) rotate(0 44.27361378033277 -1.781919130919297)"><path d="M64.16 6.27 C68.02 3.32, 72.7 0.56, 87.03 -3.83 M64.16 6.27 C71.24 3.97, 78.64 -0.32, 87.03 -3.83" stroke="#1e1e1e" stroke-width="4" fill="none"></path></g><g transform="translate(218.15639445786678 135.0302601390765) rotate(0 44.27361378033277 -1.781919130919297)"><path d="M63.02 -10.79 C66.99 -9.86, 71.93 -8.73, 87.03 -3.83 M63.02 -10.79 C70.6 -7.48, 78.37 -6.17, 87.03 -3.83" stroke="#1e1e1e" stroke-width="4" fill="none"></path></g></g><mask></mask><g stroke-linecap="round" transform="translate(318.1948834978688 100.24849772663933) rotate(0 42.77837785150683 30.23207279962881)"><path d="M15.12 0 C29.73 2.72, 39.31 2.1, 70.44 0 C81.14 3.59, 85.27 2.87, 85.56 15.12 C82.36 21.01, 82.33 36.23, 85.56 45.35 C83.75 55.51, 79.57 62.46, 70.44 60.46 C57.59 62.93, 44.49 61.48, 15.12 60.46 C2.7 61.49, 1.17 56.14, 0 45.35 C-0.74 37.33, -0.54 31.79, 0 15.12 C-0.35 2.33, 5.82 3.21, 15.12 0" stroke="none" stroke-width="0" fill="#ffec99"></path><path d="M15.12 0 C37.63 0.33, 59.27 -1.75, 70.44 0 M15.12 0 C27.59 0.06, 40.56 -0.44, 70.44 0 M70.44 0 C80.09 -1.99, 87.34 3.86, 85.56 15.12 M70.44 0 C81.4 -0.1, 84.15 5.59, 85.56 15.12 M85.56 15.12 C85.71 20.82, 87.16 29.54, 85.56 45.35 M85.56 15.12 C86.63 21.93, 85.52 29.86, 85.56 45.35 M85.56 45.35 C87.11 57.05, 81.19 60.25, 70.44 60.46 M85.56 45.35 C87.73 55.72, 78.82 62.64, 70.44 60.46 M70.44 60.46 C58.58 58.81, 47.46 58.76, 15.12 60.46 M70.44 60.46 C56.05 60.98, 40.4 60.77, 15.12 60.46 M15.12 60.46 C4.96 61.19, -0.85 55.88, 0 45.35 M15.12 60.46 C3.77 60.85, 0.27 56.78, 0 45.35 M0 45.35 C-0.05 39.83, -1.33 30.74, 0 15.12 M0 45.35 C0.82 36.97, -1.11 28.06, 0 15.12 M0 15.12 C-0.1 5.5, 3.41 1.01, 15.12 0 M0 15.12 C-1.78 3.62, 4.63 0.98, 15.12 0" stroke="#1e1e1e" stroke-width="4" fill="none"></path></g><g transform="translate(355.55326318043035 117.98057052626814) rotate(0 5.4199981689453125 12.5)"><text x="5.4199981689453125" y="0" font-family="Virgil, Segoe UI Emoji" font-size="20px" fill="#1e1e1e" text-anchor="middle" style="white-space: pre;" direction="ltr" dominant-baseline="text-before-edge">11</text></g></svg>